<svg width="90" height="90" viewBox="0 0 127 81" fill="none" xmlns="http://www.w3.org/2000/svg"><path fill-rule="evenodd" clip-rule="evenodd" d="M126.265 37.378c0-2.439-1.975-4.423-4.403-4.423h-5.876v-1.471h1.465c1.311 0 2.55-.586 3.391-1.602a4.415 4.415 0 0 0 .939-3.642l-2.201-11.797a4.413 4.413 0 0 0-4.33-3.61h-7.341a4.413 4.413 0 0 0-4.33 3.61l-2.201 11.797a4.415 4.415 0 0 0 .939 3.642 4.385 4.385 0 0 0 3.391 1.602h1.465v1.471h-5.876c-2.428 0-4.403 1.984-4.403 4.423 0 1.57.818 2.943 2.04 3.724a4.387 4.387 0 0 0-.575 2.17v1.61a8.891 8.891 0 0 0-1.238-.13 8.79 8.79 0 0 0-2.064-3.293 8.535 8.535 0 0 0-1.36-1.122c.162-.463.26-.967.26-1.487v-2.952c0-.805-.22-1.56-.6-2.211.38-.65.6-1.406.6-2.211 0-1.13-.43-2.163-1.134-2.952a4.386 4.386 0 0 0 1.133-2.95V4.922c0-2.44-1.975-4.423-4.403-4.423h-52.85c-2.428 0-4.402 1.984-4.402 4.423v20.65c0 1.13.429 2.163 1.133 2.951a4.386 4.386 0 0 0-1.133 2.952c0 .805.218 1.56.599 2.211a4.368 4.368 0 0 0-.6 2.211v2.952c0 .382.057.756.146 1.105a8.442 8.442 0 0 0-1.95 1.472 8.855 8.855 0 0 0-2.104 3.374c-.162.016-.324.049-.486.081v-1.61c0-.788-.21-1.528-.575-2.17a4.434 4.434 0 0 0 2.04-3.724c0-2.439-1.975-4.423-4.403-4.423h-5.876v-1.471h1.465c1.311 0 2.55-.586 3.391-1.602a4.416 4.416 0 0 0 .94-3.642l-2.202-11.797a4.412 4.412 0 0 0-4.33-3.61h-7.34a4.412 4.412 0 0 0-4.33 3.61L4.483 26.24a4.416 4.416 0 0 0 .939 3.642 4.386 4.386 0 0 0 3.39 1.602h1.466v1.471H4.403C1.975 32.955 0 34.94 0 37.378c0 1.57.817 2.943 2.04 3.724a4.387 4.387 0 0 0-.575 2.17v23.594c0 2.439 1.975 4.423 4.403 4.423h7.527c.445 0 .874-.065 1.286-.195v4.983c0 2.44 1.975 4.423 4.403 4.423 2.048 0 3.772-1.415 4.265-3.317h79.559c.493 1.902 2.217 3.317 4.265 3.317 2.428 0 4.403-1.984 4.403-4.423v-4.983c.404.121.841.195 1.286.195h7.527c2.428 0 4.403-1.984 4.403-4.423V43.272c0-.788-.21-1.528-.575-2.17a4.432 4.432 0 0 0 2.04-3.724h.008Zm-91.026-5.902c0-.813.655-1.472 1.465-1.472.809 0 1.465.659 1.465 1.472 0 .08-.009.162-.025.244a4.466 4.466 0 0 0-1.44-.244c-.502 0-.988.089-1.441.252a1.267 1.267 0 0 1-.024-.252Zm55.787 0c0 .08-.008.17-.024.252a4.473 4.473 0 0 0-1.44-.252c-.502 0-.988.089-1.441.244a1.245 1.245 0 0 1-.024-.244c0-.813.655-1.472 1.465-1.472.809 0 1.464.659 1.464 1.472Zm-5.616-1.472c-.162.463-.26.96-.26 1.472s.098 1.016.26 1.471H40.856c.161-.463.258-.96.258-1.471 0-.513-.097-1.017-.258-1.472H85.41ZM64.65 41.801a8.906 8.906 0 0 0-1.748 2.951h-.275a8.737 8.737 0 0 0-1.757-2.951h3.78Zm38.12 26.544H23.503V67.24h.186v-4.797h79.097v5.903h-.016Zm13.216-5.902h-3.115c-.446 0-.875.065-1.287.195v-10.52c0-2.44-1.975-4.423-4.403-4.423-.089 0-.17 0-.259.016v-.016h9.064v14.748Z" fill="#fff"></path><path d="M120.575 37.142h-17.983v30.139h17.983V37.142Z" fill="#fff"></path><path d="M107.181 57.744H18.914v15.024h88.267V57.744ZM25.89 53.321h-4.038v4.423h4.039V53.32ZM103.701 53.321h-5.14v4.057h5.14v-4.057Z" fill="#fff"></path><path fill-rule="evenodd" clip-rule="evenodd" d="M57.82 42.996H37.261c-2.833 0-5.14 2.317-5.14 5.163h25.69v-5.163h.007ZM92.37 42.996H71.813c-2.833 0-5.14 2.317-5.14 5.163h25.689v-5.163h.008Z" fill="#fff"></path><path d="M107.181 61.711H22.767v11.057h84.414V61.711Z" fill="#66D5FF"></path><path fill-rule="evenodd" clip-rule="evenodd" d="M89.57 38.118H36.712v5.536l20.557-.056 1.465 4.105h8.813l1.465-4.105H89.57v-5.48Z" fill="#66D5FF"></path><path d="M65.71 26.118 49.97 14.264a2.28 2.28 0 0 0-2.85.082c-3.43 2.902-9.42 7.983-9.42 7.983l-1.975-2.35s5.998-5.089 9.43-7.983a5.313 5.313 0 0 1 6.652-.195l15.742 11.862-1.838 2.455Z" fill="#66D5FF"></path><path d="M82.043 26.809s-11.42-8.602-16.6-12.496a2.263 2.263 0 0 0-2.881.114l-4.719 4.195-2.023-2.3 4.718-4.196a5.326 5.326 0 0 1 6.75-.268C72.46 15.744 83.88 24.354 83.88 24.354l-1.837 2.455Z" fill="#66D5FF"></path><path d="M23.503 53.598c0 .813.656 1.471 1.465 1.471.81 0 1.465-.658 1.465-1.471a2.95 2.95 0 0 1 2.938-2.952h67.531a2.95 2.95 0 0 1 2.938 2.952c0 .813.656 1.471 1.465 1.471s1.465-.658 1.465-1.471c0-3.252-2.639-5.903-5.876-5.903h-2.201c0-1.56-.632-3.081-1.716-4.163a5.841 5.841 0 0 0-4.152-1.731h-17.62c-3.237 0-5.875 2.65-5.875 5.902h-5.14a5.922 5.922 0 0 0-1.715-4.162 5.841 5.841 0 0 0-4.152-1.732h-17.62a5.868 5.868 0 0 0-4.143 1.724 5.895 5.895 0 0 0-1.724 4.17H29.37c-3.237 0-5.876 2.65-5.876 5.903l.008-.008Zm47.71-8.846h17.62a2.948 2.948 0 0 1 2.938 2.951H68.284a2.95 2.95 0 0 1 2.938-2.951h-.008Zm-36.573.862a2.942 2.942 0 0 1 2.072-.862H54.33a2.948 2.948 0 0 1 2.938 2.951H33.782c0-.78.316-1.536.866-2.09h-.008ZM36.712 34.427c-.81 0-1.465.658-1.465 1.471v2.952c0 .813.655 1.471 1.465 1.471s1.465-.658 1.465-1.471h49.912c0 .813.655 1.471 1.465 1.471.809 0 1.464-.658 1.464-1.471v-2.952c0-.813-.655-1.471-1.465-1.471-.809 0-1.464.658-1.464 1.471H38.177c0-.813-.656-1.471-1.465-1.471Z" fill="#224251"></path><path d="M107.181 50.646c-.81 0-1.465.659-1.465 1.472v4.423h-85.15v-4.423c0-.813-.656-1.472-1.466-1.472-.809 0-1.465.659-1.465 1.472v23.967c0 .813.656 1.472 1.465 1.472.81 0 1.465-.659 1.465-1.472V74.24h85.151v1.845c0 .813.655 1.472 1.465 1.472.809 0 1.465-.659 1.465-1.472V52.118c0-.813-.656-1.472-1.465-1.472Zm-86.616 8.846h85.151v11.797h-85.15V59.492ZM19.1 49.175c.81 0 1.465-.659 1.465-1.472 0-.812-.656-1.471-1.465-1.471s-1.465.659-1.465 1.471c0 .813.656 1.472 1.465 1.472ZM36.712 32.947c.809 0 1.465-.659 1.465-1.471 0-.813-.656-1.472-1.465-1.472-.81 0-1.465.659-1.465 1.472 0 .812.656 1.471 1.465 1.471ZM89.57 32.947c.809 0 1.465-.659 1.465-1.471 0-.813-.656-1.472-1.465-1.472-.81 0-1.465.659-1.465 1.472 0 .812.656 1.471 1.465 1.471ZM107.181 49.175c.809 0 1.465-.659 1.465-1.472 0-.812-.656-1.471-1.465-1.471s-1.465.659-1.465 1.471c0 .813.656 1.472 1.465 1.472Z" fill="#224251"></path><path d="M120.397 41.8h-17.619c-.809 0-1.465.66-1.465 1.472v2.952c0 .813.656 1.471 1.465 1.471s1.465-.658 1.465-1.471v-1.472h14.681v20.65h-6.053c-.81 0-1.465.659-1.465 1.472s.655 1.472 1.465 1.472h7.526c.81 0 1.465-.659 1.465-1.472V43.281c0-.813-.655-1.472-1.465-1.472v-.008ZM13.41 65.394H7.358v-20.65h14.681v1.471c0 .813.656 1.472 1.465 1.472.81 0 1.465-.658 1.465-1.471v-2.952c0-.813-.655-1.471-1.465-1.471H5.883c-.808 0-1.464.658-1.464 1.471v23.594c0 .813.656 1.471 1.465 1.471h7.527c.809 0 1.465-.658 1.465-1.471 0-.813-.656-1.472-1.465-1.472v.008ZM121.862 35.907h-20.557c-.809 0-1.465.658-1.465 1.471 0 .813.656 1.472 1.465 1.472h20.557c.81 0 1.465-.659 1.465-1.472s-.655-1.471-1.465-1.471ZM24.968 38.85c.81 0 1.465-.659 1.465-1.472s-.655-1.471-1.465-1.471H4.411c-.81 0-1.465.658-1.465 1.471 0 .813.656 1.472 1.465 1.472h20.557ZM105.716 28.532h4.403v4.423c0 .813.655 1.472 1.465 1.472.809 0 1.465-.659 1.465-1.472v-4.422h4.402c.437 0 .85-.196 1.133-.537a1.46 1.46 0 0 0 .316-1.211l-2.201-11.797a1.468 1.468 0 0 0-1.441-1.203h-7.341c-.704 0-1.311.504-1.44 1.203l-2.202 11.797c-.081.43.033.878.316 1.211.283.333.696.537 1.133.537h-.008Zm3.423-11.796h4.905l1.651 8.845h-8.207l1.651-8.845ZM8.822 28.532h4.403v4.423c0 .813.655 1.472 1.465 1.472.809 0 1.464-.659 1.464-1.472v-4.422h4.403c.437 0 .85-.196 1.133-.537.284-.341.397-.78.316-1.211l-2.201-11.797a1.467 1.467 0 0 0-1.441-1.203h-7.34c-.705 0-1.312.504-1.441 1.203L7.38 26.785c-.08.43.033.878.316 1.211.283.333.696.537 1.133.537h-.008Zm3.423-11.796h4.905l1.651 8.845h-8.207l1.651-8.845ZM36.712 27.053h52.85c.809 0 1.465-.659 1.465-1.472V4.931c0-.813-.656-1.472-1.465-1.472h-52.85c-.81 0-1.465.659-1.465 1.472v20.65c0 .813.655 1.472 1.465 1.472Zm1.465-20.65h49.912v17.699H38.177v-17.7Z" fill="#224251"></path><path d="M80.756 15.996a2.945 2.945 0 0 0 2.938-2.951 2.945 2.945 0 0 0-2.938-2.951 2.945 2.945 0 0 0-2.938 2.95 2.945 2.945 0 0 0 2.938 2.952Z" fill="#66D5FF"></path></svg>