<svg fill="#647a85" xmlns="http://www.w3.org/2000/svg"  viewBox="0 0 80 80" width="80px" height="80px"><path d="M 18 10 C 13.593562 10 10 13.593562 10 18 L 10 62 C 10 66.406438 13.593562 70 18 70 L 62 70 C 66.406438 70 70 66.406438 70 62 L 70 18 C 70 13.593562 66.406438 10 62 10 L 18 10 z M 18 12 L 62 12 C 65.325562 12 68 14.674438 68 18 L 68 62 C 68 65.325562 65.325562 68 62 68 L 18 68 C 14.674438 68 12 65.325562 12 62 L 12 18 C 12 14.674438 14.674438 12 18 12 z M 18 15 C 17.448 15 17 15.448 17 16 C 17 16.552 17.448 17 18 17 C 18.552 17 19 16.552 19 16 C 19 15.448 18.552 15 18 15 z M 22 15 C 21.448 15 21 15.448 21 16 C 21 16.552 21.448 17 22 17 C 22.552 17 23 16.552 23 16 C 23 15.448 22.552 15 22 15 z M 26 15 C 25.448 15 25 15.448 25 16 C 25 16.552 25.448 17 26 17 C 26.552 17 27 16.552 27 16 C 27 15.448 26.552 15 26 15 z M 30 15 C 29.448 15 29 15.448 29 16 C 29 16.552 29.448 17 30 17 C 30.552 17 31 16.552 31 16 C 31 15.448 30.552 15 30 15 z M 34 15 C 33.448 15 33 15.448 33 16 C 33 16.552 33.448 17 34 17 C 34.552 17 35 16.552 35 16 C 35 15.448 34.552 15 34 15 z M 38 15 C 37.448 15 37 15.448 37 16 C 37 16.552 37.448 17 38 17 C 38.552 17 39 16.552 39 16 C 39 15.448 38.552 15 38 15 z M 42 15 C 41.448 15 41 15.448 41 16 C 41 16.552 41.448 17 42 17 C 42.552 17 43 16.552 43 16 C 43 15.448 42.552 15 42 15 z M 46 15 C 45.448 15 45 15.448 45 16 C 45 16.552 45.448 17 46 17 C 46.552 17 47 16.552 47 16 C 47 15.448 46.552 15 46 15 z M 50 15 C 49.448 15 49 15.448 49 16 C 49 16.552 49.448 17 50 17 C 50.552 17 51 16.552 51 16 C 51 15.448 50.552 15 50 15 z M 54 15 C 53.448 15 53 15.448 53 16 C 53 16.552 53.448 17 54 17 C 54.552 17 55 16.552 55 16 C 55 15.448 54.552 15 54 15 z M 58 15 C 57.448 15 57 15.448 57 16 C 57 16.552 57.448 17 58 17 C 58.552 17 59 16.552 59 16 C 59 15.448 58.552 15 58 15 z M 62 15 C 61.448 15 61 15.448 61 16 C 61 16.552 61.448 17 62 17 C 62.552 17 63 16.552 63 16 C 63 15.448 62.552 15 62 15 z M 40 20 C 36.666667 20 33.169173 21.628338 30.847656 24.496094 C 28.88821 26.916587 27.927968 30.294224 28.601562 34.15625 C 27.309088 33.589663 26.110543 33.328663 25.148438 33.689453 C 23.703788 34.231197 23 35.666667 23 37 C 23 37.75 23.300846 38.425084 23.707031 38.953125 C 24.113217 39.481166 24.618391 39.901781 25.150391 40.300781 C 25.986301 40.927714 26.836283 41.542469 27.619141 42.191406 C 25.898721 44.908189 24.270341 46.268408 22.996094 47.011719 C 22.293833 47.421371 21.687792 47.681931 21.126953 48.0625 C 20.566115 48.443069 20 49.166667 20 50 C 20 50.833333 20.430103 51.536727 20.947266 52.033203 C 21.464429 52.52968 22.087165 52.883358 22.71875 53.164062 C 23.627781 53.568076 24.35405 53.654077 25.080078 53.765625 C 25.151168 54.3279 25.315334 54.979397 25.917969 55.582031 C 26.825811 56.489874 28.366667 57 31 57 C 32.166667 57 32.609974 57.525139 33.820312 58.332031 C 35.030651 59.138924 36.833333 60 40 60 C 43.166667 60 44.969349 59.138924 46.179688 58.332031 C 47.390026 57.525139 47.833333 57 49 57 C 51.633333 57 53.174189 56.489874 54.082031 55.582031 C 54.684666 54.979397 54.848832 54.3279 54.919922 53.765625 C 55.64595 53.654077 56.372219 53.568076 57.28125 53.164062 C 57.912835 52.883358 58.535571 52.52968 59.052734 52.033203 C 59.569897 51.536727 60 50.833333 60 50 C 60 49.166667 59.433885 48.443069 58.873047 48.0625 C 58.312208 47.681931 57.706167 47.421371 57.003906 47.011719 C 55.729659 46.268408 54.101279 44.908189 52.380859 42.191406 C 53.163717 41.542469 54.013699 40.927714 54.849609 40.300781 C 55.381609 39.901781 55.886783 39.481166 56.292969 38.953125 C 56.699154 38.425084 57 37.75 57 37 C 57 35.666667 56.296212 34.231197 54.851562 33.689453 C 53.889457 33.328663 52.690911 33.589663 51.398438 34.15625 C 52.072032 30.294224 51.11179 26.916587 49.152344 24.496094 C 46.830827 21.628338 43.333333 20 40 20 z M 40 22 C 42.666667 22 45.669173 23.371662 47.597656 25.753906 C 49.52614 28.13615 50.455913 31.468199 49.050781 35.683594 A 1.0001 1.0001 0 0 0 50.599609 36.800781 C 52.450276 35.412781 53.593087 35.35229 54.148438 35.560547 C 54.703788 35.768803 55 36.333333 55 37 C 55 37.25 54.92585 37.449916 54.707031 37.734375 C 54.488217 38.018834 54.118391 38.348219 53.650391 38.699219 C 52.714391 39.401219 51.41082 40.175118 50.292969 41.292969 A 1.0001 1.0001 0 0 0 50.130859 42.496094 C 52.212277 46.138575 54.400616 47.807586 55.996094 48.738281 C 56.793833 49.203629 57.437792 49.505569 57.751953 49.71875 C 58.066115 49.931931 58 49.833333 58 50 C 58 50.166667 57.9301 50.338273 57.666016 50.591797 C 57.401929 50.84532 56.962165 51.116642 56.46875 51.335938 C 55.481921 51.774527 54.166667 52 54 52 A 1.0001 1.0001 0 0 0 53 53 C 53 53.5 53.01013 53.825811 52.667969 54.167969 C 52.325811 54.510126 51.366667 55 49 55 C 47.166667 55 46.109975 55.974861 45.070312 56.667969 C 44.030651 57.361076 42.833333 58 40 58 C 37.166667 58 35.969349 57.361076 34.929688 56.667969 C 33.890026 55.974861 32.833333 55 31 55 C 28.633333 55 27.674189 54.510126 27.332031 54.167969 C 26.989874 53.825811 27 53.5 27 53 A 1.0001 1.0001 0 0 0 26 52 C 25.833333 52 24.518079 51.774527 23.53125 51.335938 C 23.037835 51.116642 22.598071 50.84532 22.333984 50.591797 C 22.069897 50.338273 22 50.166667 22 50 C 22 49.833333 21.93389 49.93193 22.248047 49.71875 C 22.562208 49.505569 23.206167 49.203629 24.003906 48.738281 C 25.599384 47.807586 27.787723 46.138575 29.869141 42.496094 A 1.0001 1.0001 0 0 0 29.707031 41.292969 C 28.58918 40.175118 27.285609 39.401219 26.349609 38.699219 C 25.881609 38.348219 25.511783 38.018834 25.292969 37.734375 C 25.074154 37.449916 25 37.25 25 37 C 25 36.333333 25.296212 35.768803 25.851562 35.560547 C 26.406914 35.35229 27.549724 35.412781 29.400391 36.800781 A 1.0001 1.0001 0 0 0 30.949219 35.683594 C 29.544087 31.468199 30.47386 28.13615 32.402344 25.753906 C 34.330827 23.371662 37.333333 22 40 22 z M 18 63 C 17.448 63 17 63.448 17 64 C 17 64.552 17.448 65 18 65 C 18.552 65 19 64.552 19 64 C 19 63.448 18.552 63 18 63 z M 22 63 C 21.448 63 21 63.448 21 64 C 21 64.552 21.448 65 22 65 C 22.552 65 23 64.552 23 64 C 23 63.448 22.552 63 22 63 z M 26 63 C 25.448 63 25 63.448 25 64 C 25 64.552 25.448 65 26 65 C 26.552 65 27 64.552 27 64 C 27 63.448 26.552 63 26 63 z M 30 63 C 29.448 63 29 63.448 29 64 C 29 64.552 29.448 65 30 65 C 30.552 65 31 64.552 31 64 C 31 63.448 30.552 63 30 63 z M 34 63 C 33.448 63 33 63.448 33 64 C 33 64.552 33.448 65 34 65 C 34.552 65 35 64.552 35 64 C 35 63.448 34.552 63 34 63 z M 38 63 C 37.448 63 37 63.448 37 64 C 37 64.552 37.448 65 38 65 C 38.552 65 39 64.552 39 64 C 39 63.448 38.552 63 38 63 z M 42 63 C 41.448 63 41 63.448 41 64 C 41 64.552 41.448 65 42 65 C 42.552 65 43 64.552 43 64 C 43 63.448 42.552 63 42 63 z M 46 63 C 45.448 63 45 63.448 45 64 C 45 64.552 45.448 65 46 65 C 46.552 65 47 64.552 47 64 C 47 63.448 46.552 63 46 63 z M 50 63 C 49.448 63 49 63.448 49 64 C 49 64.552 49.448 65 50 65 C 50.552 65 51 64.552 51 64 C 51 63.448 50.552 63 50 63 z M 54 63 C 53.448 63 53 63.448 53 64 C 53 64.552 53.448 65 54 65 C 54.552 65 55 64.552 55 64 C 55 63.448 54.552 63 54 63 z M 58 63 C 57.448 63 57 63.448 57 64 C 57 64.552 57.448 65 58 65 C 58.552 65 59 64.552 59 64 C 59 63.448 58.552 63 58 63 z M 62 63 C 61.448 63 61 63.448 61 64 C 61 64.552 61.448 65 62 65 C 62.552 65 63 64.552 63 64 C 63 63.448 62.552 63 62 63 z"/></svg>