<svg fill="#647a85" xmlns="http://www.w3.org/2000/svg"  viewBox="0 0 64 64" width="64px" height="64px"><path d="M 16 6 C 10.488666 6 6 10.488666 6 16 L 6 48 C 6 53.511334 10.488666 58 16 58 L 48 58 C 53.511334 58 58 53.511334 58 48 L 58 16 C 58 10.488666 53.511334 6 48 6 L 16 6 z M 16 8 L 48 8 C 52.430666 8 56 11.569334 56 16 L 56 48 C 56 52.430666 52.430666 56 48 56 L 16 56 C 11.569334 56 8 52.430666 8 48 L 8 16 C 8 11.569334 11.569334 8 16 8 z M 43.785156 10.134766 C 43.398438 10.086766 43.001922 10.269656 42.794922 10.628906 L 41.796875 12.361328 C 41.521875 12.839328 41.685063 13.451562 42.164062 13.726562 C 42.321062 13.817563 42.493109 13.859375 42.662109 13.859375 C 43.008109 13.859375 43.343297 13.681375 43.529297 13.359375 L 44.529297 11.626953 C 44.804297 11.148953 44.639156 10.536719 44.160156 10.261719 C 44.040656 10.192469 43.914062 10.150766 43.785156 10.134766 z M 47.302734 12.882812 C 47.046859 12.887813 46.793062 12.989953 46.601562 13.189453 L 45.216797 14.632812 C 44.834797 15.030812 44.848094 15.663875 45.246094 16.046875 C 45.440094 16.232875 45.6885 16.324219 45.9375 16.324219 C 46.2005 16.324219 46.463156 16.222578 46.660156 16.017578 L 48.044922 14.574219 C 48.426922 14.176219 48.413625 13.543156 48.015625 13.160156 C 47.816625 12.969656 47.558609 12.877812 47.302734 12.882812 z M 32.037109 14.291016 C 24.168109 14.291016 16.476562 18.795328 16.476562 31.986328 C 16.476562 45.253328 24.416594 49.710938 32.058594 49.710938 C 40.959594 49.710938 45.876953 44.488563 45.876953 38.476562 C 45.876953 35.648562 44.528078 33.18125 42.080078 31.53125 C 41.473078 31.12225 40.806031 30.764937 40.082031 30.460938 C 39.912031 27.946938 39.167328 25.982422 37.861328 24.607422 C 36.556328 23.233422 34.727219 22.507812 32.574219 22.507812 C 29.529219 22.507813 27.32625 23.438031 25.65625 25.832031 C 25.65625 25.832031 27.636422 27.211422 28.232422 27.607422 C 29.117422 26.583422 29.815266 25.6865 32.572266 25.6875 C 35.580266 25.6875 36.771484 28.101719 36.771484 29.511719 C 35.957484 29.345719 34.392656 29.257812 33.097656 29.257812 C 29.637656 29.257813 25.257812 30.932547 25.257812 35.560547 C 25.257813 38.801547 28.337156 41.275391 31.910156 41.275391 C 38.043156 41.275391 39.441891 36.682172 39.962891 33.951172 C 40.099891 33.951172 42.767578 35.475203 42.767578 38.658203 C 42.767578 43.335203 38.194547 46.529297 32.060547 46.529297 C 24.603547 46.529297 19.623047 41.659234 19.623047 32.490234 C 19.623047 22.264234 24.079078 17.457031 31.955078 17.457031 C 36.719078 17.457031 41.916531 18.66075 44.394531 26.21875 L 47.400391 25.4375 C 44.195391 14.8285 35.671109 14.291016 32.037109 14.291016 z M 50.056641 16.416016 C 49.928812 16.439297 49.803 16.488453 49.6875 16.564453 L 48.015625 17.660156 C 47.553625 17.963156 47.423563 18.584875 47.726562 19.046875 C 47.918563 19.338875 48.239453 19.496094 48.564453 19.496094 C 48.753453 19.496094 48.942328 19.443031 49.111328 19.332031 L 50.783203 18.236328 C 51.245203 17.933328 51.375266 17.313563 51.072266 16.851562 C 50.845016 16.506563 50.440125 16.346172 50.056641 16.416016 z M 33.521484 32.419922 C 34.902484 32.419922 35.753531 32.518391 36.894531 32.775391 C 36.529531 37.514391 34.215891 38.140625 31.962891 38.140625 C 30.734891 38.140625 28.431641 37.497687 28.431641 35.554688 C 28.431641 34.345687 29.014484 32.419922 33.521484 32.419922 z M 14.648438 42.148438 C 14.518562 42.153203 14.388922 42.181984 14.263672 42.240234 L 12.449219 43.085938 C 11.949219 43.318937 11.733797 43.914062 11.966797 44.414062 C 12.135797 44.778062 12.496047 44.992188 12.873047 44.992188 C 13.015047 44.992187 13.158922 44.962437 13.294922 44.898438 L 15.107422 44.052734 C 15.607422 43.819734 15.824797 43.224609 15.591797 42.724609 C 15.417047 42.348109 15.038063 42.134141 14.648438 42.148438 z M 17.166016 45.970703 C 16.911516 45.944328 16.648094 46.014953 16.433594 46.189453 L 14.878906 47.449219 C 14.449906 47.797219 14.384422 48.427469 14.732422 48.855469 C 14.930422 49.099469 15.218766 49.226563 15.509766 49.226562 C 15.731766 49.226562 15.953672 49.151953 16.138672 49.001953 L 17.693359 47.742188 C 18.122359 47.394188 18.187844 46.763937 17.839844 46.335938 C 17.665344 46.120937 17.420516 45.997078 17.166016 45.970703 z M 20.154297 49.068359 C 19.901547 49.108109 19.664453 49.24575 19.501953 49.46875 L 18.324219 51.083984 C 17.999219 51.529984 18.096969 52.155469 18.542969 52.480469 C 18.720969 52.608469 18.926859 52.671875 19.130859 52.671875 C 19.439859 52.671875 19.744453 52.529719 19.939453 52.261719 L 21.117188 50.644531 C 21.442187 50.198531 21.344438 49.573047 20.898438 49.248047 C 20.674938 49.086047 20.407047 49.028609 20.154297 49.068359 z"/></svg>