<svg fill="#647a85" xmlns="http://www.w3.org/2000/svg"  viewBox="0 0 64 64" width="64px" height="64px"><path d="M 13 6 C 9.1488422 6 6 9.1488422 6 13 L 6 51 C 6 54.851158 9.1488422 58 13 58 L 51 58 C 54.851158 58 58 54.851158 58 51 L 58 13 C 58 9.1488422 54.851158 6 51 6 L 13 6 z M 13 8 L 51 8 C 53.766842 8 56 10.233158 56 13 L 56 51 C 56 53.766842 53.766842 56 51 56 L 13 56 C 10.233158 56 8 53.766842 8 51 L 8 13 C 8 10.233158 10.233158 8 13 8 z M 30 11 A 1.0001 1.0001 0 0 0 29 12 L 29 22 A 1.0001 1.0001 0 1 0 31 22 L 31 13 L 35 13 A 1.0001 1.0001 0 1 0 35 11 L 30 11 z M 34 15 A 1.0001 1.0001 0 0 0 33 16 C 33 42.528553 33.021484 31.870038 33.021484 34.558594 C 33.021484 35.841064 32.623594 36.644319 32.078125 37.173828 C 31.532656 37.703337 30.792103 37.969458 30.027344 37.970703 C 29.262585 37.971903 28.498769 37.700286 27.951172 37.208984 C 27.403574 36.717683 27.035156 36.02814 27.035156 34.992188 C 27.035156 32.889705 28.834609 31.707905 30.601562 32.0625 A 1.0001 1.0001 0 0 0 30.603516 32.0625 L 30.806641 32.103516 A 1.0001 1.0001 0 0 0 32 31.121094 L 32 26.058594 A 1.0001 1.0001 0 0 0 31.109375 25.064453 C 30.754546 25.025508 30.385098 25 30 25 C 24.493207 25 20 29.493207 20 35 C 20 40.506793 24.493207 45 30 45 C 35.506793 45 40 40.506793 40 35 L 40 26.671875 C 42.23486 27.718695 44.699277 28.259338 47.183594 27.794922 A 1.0001 1.0001 0 0 0 48 26.8125 L 48 21.632812 A 1.0001 1.0001 0 0 0 46.664062 20.691406 C 46.107397 20.889907 45.550472 21 45 21 C 42.233158 21 40 18.766842 40 16 A 1.0001 1.0001 0 0 0 39 15 L 34 15 z M 35.001953 17 L 38.203125 17 C 38.710172 20.360977 41.502959 23 45 23 C 45.34994 23 45.663479 22.873156 46 22.818359 L 46 25.820312 C 43.734525 26.045969 41.440906 25.596111 39.544922 24.361328 A 1.0001 1.0001 0 0 0 38 25.199219 L 38 35 C 38 39.423207 34.423207 43 30 43 C 25.576793 43 22 39.423207 22 35 C 22 30.576793 25.576793 27 30 27 L 30 30.125 C 27.424097 30.14836 25.035156 32.074801 25.035156 34.992188 C 25.035156 36.542735 25.665457 37.84513 26.615234 38.697266 C 27.565012 39.549401 28.799509 39.972708 30.03125 39.970703 C 31.262991 39.968703 32.518797 39.531476 33.470703 38.607422 C 34.422609 37.683368 35.021484 36.283624 35.021484 34.558594 C 35.021484 32.004605 35.004074 38.444417 35.001953 17 z M 26 22 C 25.281903 22 24.580564 22.07634 23.904297 22.220703 A 1.0005834 1.0005834 0 1 0 24.322266 24.177734 C 24.863998 24.062094 25.424097 24 26 24 A 1.0001 1.0001 0 1 0 26 22 z M 20.851562 23.585938 A 1.0001 1.0001 0 0 0 20.320312 23.771484 C 17.711586 25.577269 16 28.597146 16 32 C 16 33.57629 16.368075 35.073299 17.021484 36.402344 A 1.0001 1.0001 0 1 0 18.816406 35.521484 C 18.293816 34.458529 18 33.26571 18 32 C 18 29.266854 19.369711 26.862231 21.458984 25.416016 A 1.0001 1.0001 0 0 0 20.851562 23.585938 z M 11.984375 47.986328 A 1.0001 1.0001 0 0 0 11 49 L 11 51 A 1.0001 1.0001 0 1 0 13 51 L 13 49 A 1.0001 1.0001 0 0 0 11.984375 47.986328 z M 16.984375 47.986328 A 1.0001 1.0001 0 0 0 16 49 L 16 51 A 1.0001 1.0001 0 1 0 18 51 L 18 49 A 1.0001 1.0001 0 0 0 16.984375 47.986328 z M 21.984375 47.986328 A 1.0001 1.0001 0 0 0 21 49 L 21 51 A 1.0001 1.0001 0 1 0 23 51 L 23 49 A 1.0001 1.0001 0 0 0 21.984375 47.986328 z M 26.984375 47.986328 A 1.0001 1.0001 0 0 0 26 49 L 26 51 A 1.0001 1.0001 0 1 0 28 51 L 28 49 A 1.0001 1.0001 0 0 0 26.984375 47.986328 z M 31.984375 47.986328 A 1.0001 1.0001 0 0 0 31 49 L 31 51 A 1.0001 1.0001 0 1 0 33 51 L 33 49 A 1.0001 1.0001 0 0 0 31.984375 47.986328 z M 36.984375 47.986328 A 1.0001 1.0001 0 0 0 36 49 L 36 51 A 1.0001 1.0001 0 1 0 38 51 L 38 49 A 1.0001 1.0001 0 0 0 36.984375 47.986328 z M 41.984375 47.986328 A 1.0001 1.0001 0 0 0 41 49 L 41 51 A 1.0001 1.0001 0 1 0 43 51 L 43 49 A 1.0001 1.0001 0 0 0 41.984375 47.986328 z M 46.984375 47.986328 A 1.0001 1.0001 0 0 0 46 49 L 46 51 A 1.0001 1.0001 0 1 0 48 51 L 48 49 A 1.0001 1.0001 0 0 0 46.984375 47.986328 z M 51.984375 47.986328 A 1.0001 1.0001 0 0 0 51 49 L 51 51 A 1.0001 1.0001 0 1 0 53 51 L 53 49 A 1.0001 1.0001 0 0 0 51.984375 47.986328 z"/></svg>