<svg xmlns="http://www.w3.org/2000/svg" width="22" height="24" viewBox="0 0 22 24" fill="none"><path fill="#14AE5C" stroke="#9BDFB8" stroke-linecap="round" stroke-linejoin="round" stroke-width="2" d="m10.813 22.466 1.087-.442c2.28-.92 4.248-2.41 5.692-4.309a12.337 12.337 0 0 0 2.501-6.46l.531-6.419a1.116 1.116 0 0 0-.25-.738 1.242 1.242 0 0 0-.69-.425l-8.872-2.14L1.94 3.627a1.242 1.242 0 0 0-.688.424c-.171.212-.26.473-.251.738l.531 6.42a12.337 12.337 0 0 0 2.5 6.46c1.445 1.898 3.413 3.388 5.693 4.31l1.088.488Z"></path><path stroke="#E6FEF0" stroke-linecap="round" stroke-linejoin="round" stroke-width="2" d="m6.35 11.607 3.271 3.358 6.542-6.716"></path></svg>